<svg xmlns="http://www.w3.org/2000/svg" width="1200" height="120" viewBox="0 0 1200 120">
  <g fill="none" stroke="#2a2a2a" stroke-width="3" stroke-linecap="round" stroke-linejoin="round" opacity=".9">
    <path d="M70 85c18 0 28-10 28-22 0-14-10-24-24-24-10 0-18 6-21 14-10 1-18 9-18 19 0 12 9 23 35 13Z"/>
    <path d="M148 92c10-18 10-34 0-50M160 88c14-10 20-24 18-40"/>

    <path d="M250 90c0-18 12-30 30-30 10 0 18 4 24 10 10-2 20 2 26 10 8 10 6 24-4 32-8 6-22 6-30-2-10 8-24 8-34 2-8-6-12-14-12-22Z"/>
    <path d="M302 58c6-10 14-14 26-14"/>

    <path d="M420 92c0-30 22-52 54-52 26 0 46 16 52 38 10-2 20 4 20 14 0 10-10 18-22 14" />
    <path d="M440 92c6 10 14 16 26 18M492 92c-4 10-12 16-24 18" />

    <path d="M610 94c0-30 18-48 48-48 22 0 38 10 44 26 14-2 26 6 26 20 0 16-14 28-34 22" />
    <path d="M632 92c6 10 14 16 26 18M678 92c-4 10-12 16-24 18" />

    <path d="M790 88c0-18 14-32 34-32 18 0 32 12 32 28 0 14-10 26-26 28" />
    <path d="M810 62c10-10 22-10 32 0" />

    <path d="M930 92c0-24 18-42 44-42 22 0 40 14 42 34 8-2 16 4 16 12 0 10-10 18-22 14" />
    <path d="M950 92c6 10 14 16 26 18M994 92c-4 10-12 16-24 18" />
  </g>
</svg>

