<svg xmlns="http://www.w3.org/2000/svg" width="900" height="700" viewBox="0 0 900 700">
  <defs>
    <linearGradient id="sky" x1="0" x2="0" y1="0" y2="1">
      <stop offset="0" stop-color="#bdd0e3"/>
      <stop offset="1" stop-color="#f0f2f5"/>
    </linearGradient>
    <linearGradient id="field" x1="0" x2="0" y1="0" y2="1">
      <stop offset="0" stop-color="#7aa16a"/>
      <stop offset="1" stop-color="#4e7a55"/>
    </linearGradient>
  </defs>
  <rect width="900" height="700" fill="url(#sky)"/>
  <rect y="380" width="900" height="320" fill="url(#field)"/>

  <g transform="translate(120 220)" opacity=".95">
    <path d="M110 340c0-120 50-185 115-185s115 65 115 185" fill="#f4f1ea" opacity=".55"/>
    <circle cx="170" cy="140" r="46" fill="#f0d0b5"/>
    <circle cx="270" cy="150" r="44" fill="#efc9aa"/>
    <path d="M130 140c10-40 50-55 80-45 20 10 30 25 34 45" fill="#3b2b25" opacity=".7"/>
    <path d="M230 150c10-36 48-52 76-42 18 10 28 22 32 42" fill="#3b2b25" opacity=".65"/>
    <path d="M100 330c40-55 80-70 140-70s100 15 140 70" fill="#3c4b60" opacity=".75"/>
    <path d="M205 250l45 18-55 70-44-18z" fill="#8a6a4a" opacity=".7"/>
  </g>

  <g opacity=".55" fill="#2d4a33">
    <circle cx="740" cy="360" r="26"/>
    <rect x="732" y="360" width="16" height="80" rx="8"/>
    <circle cx="800" cy="350" r="22"/>
    <rect x="792" y="350" width="16" height="90" rx="8"/>
  </g>
</svg>

