<svg xmlns="http://www.w3.org/2000/svg" width="1200" height="600" viewBox="0 0 1200 600">
  <defs>
    <linearGradient id="sky" x1="0" x2="0" y1="0" y2="1">
      <stop offset="0" stop-color="#7aa2c9"/>
      <stop offset="1" stop-color="#c9d4e4"/>
    </linearGradient>
    <linearGradient id="field" x1="0" x2="0" y1="0" y2="1">
      <stop offset="0" stop-color="#567b4b"/>
      <stop offset="1" stop-color="#2f5a3c"/>
    </linearGradient>
    <filter id="grain">
      <feTurbulence type="fractalNoise" baseFrequency=".85" numOctaves="2" stitchTiles="stitch" />
      <feColorMatrix type="matrix" values="1 0 0 0 0  0 1 0 0 0  0 0 1 0 0  0 0 0 .07 0"/>
    </filter>
  </defs>

  <rect width="1200" height="600" fill="url(#sky)"/>
  <rect y="320" width="1200" height="280" fill="url(#field)"/>

  <g opacity=".7">
    <path d="M0 360 C 240 300, 420 420, 650 360 S 980 330, 1200 360 L 1200 600 L 0 600 Z" fill="#3c6d45"/>
  </g>

  <g opacity=".85">
    <rect x="120" y="250" width="230" height="150" rx="6" fill="#9a2f2f"/>
    <rect x="145" y="285" width="70" height="115" fill="#7a2323"/>
    <path d="M110 260 L235 190 L370 260 Z" fill="#7a2323"/>
    <rect x="260" y="295" width="70" height="55" fill="#e9e2d4" opacity=".85"/>
  </g>

  <g fill="#2d4a33" opacity=".9">
    <rect x="420" y="235" width="18" height="130" rx="9"/>
    <circle cx="429" cy="225" r="36"/>
    <rect x="480" y="255" width="18" height="110" rx="9"/>
    <circle cx="489" cy="245" r="30"/>
    <rect x="545" y="240" width="18" height="125" rx="9"/>
    <circle cx="554" cy="230" r="34"/>
    <rect x="620" y="260" width="18" height="105" rx="9"/>
    <circle cx="629" cy="250" r="28"/>
  </g>

  <rect width="1200" height="600" filter="url(#grain)" opacity=".35"/>
</svg>

