<svg xmlns="http://www.w3.org/2000/svg" width="800" height="500" viewBox="0 0 800 500">
  <defs>
    <linearGradient id="g" x1="0" x2="0" y1="0" y2="1">
      <stop offset="0" stop-color="#c9d8e6"/>
      <stop offset="1" stop-color="#eff3f7"/>
    </linearGradient>
  </defs>
  <rect width="800" height="500" fill="url(#g)"/>
  <rect y="290" width="800" height="210" fill="#86a86f"/>
  <path d="M0 320 C 160 280, 260 370, 420 320 S 680 300, 800 320 L 800 500 L 0 500 Z" fill="#5f8552" opacity=".85"/>
  <g fill="#3f6d49" opacity=".9">
    <circle cx="160" cy="260" r="48"/>
    <rect x="150" y="260" width="20" height="100" rx="10"/>
    <circle cx="260" cy="250" r="40"/>
    <rect x="250" y="250" width="20" height="110" rx="10"/>
  </g>
  <g fill="#ffffff" opacity=".8">
    <rect x="470" y="210" width="250" height="170" rx="14"/>
    <rect x="495" y="235" width="200" height="20" rx="10" opacity=".65"/>
    <rect x="495" y="270" width="160" height="18" rx="9" opacity=".55"/>
    <rect x="495" y="303" width="190" height="18" rx="9" opacity=".55"/>
  </g>
</svg>

